<svg xmlns="http://www.w3.org/2000/svg" width="1180" height="600" viewBox="0 0 1180 600" role="img" aria-label="AICR topology map">
<style>
.bg{fill:#f8fafc}.title{font:700 24px system-ui, sans-serif;fill:#111827}.subtitle{font:13px system-ui, sans-serif;fill:#475569}
.section{font:700 13px system-ui, sans-serif;fill:#334155}.edge-label{font:11px system-ui, sans-serif;fill:#334155;text-anchor:middle}
.box-title{font:700 13px system-ui, sans-serif;fill:#111827;text-anchor:middle}.box-line{font:11px system-ui, sans-serif;fill:#475569;text-anchor:middle}
.numa rect{fill:#e0f2fe;stroke:#0369a1}.gpu rect{fill:#dcfce7;stroke:#15803d}.nic rect{fill:#fef3c7;stroke:#b45309}
</style>
<rect class="bg" x="0" y="0" width="100%" height="100%" />
<text x="40" y="44" class="title">Topology Map: b200 b0002</text>
<text x="40" y="68" class="subtitle">Run 144546Z-r01 on 2026-05-24; report-only view from parsed topology evidence</text>
<text x="40" y="102" class="section">NUMA domains and CPU ranges</text>
<text x="40" y="296" class="section">GPUs</text>
<text x="40" y="496" class="section">IB fabric mlx5 devices</text>
<line x1="275.9" y1="174.0" x2="150.6" y2="310.0" stroke="#475569" stroke-width="2" stroke-dasharray="7 5" />
<text x="213.2" y="237.0" class="edge-label">NUMA</text>
<line x1="401.1" y1="174.0" x2="275.9" y2="310.0" stroke="#475569" stroke-width="2" stroke-dasharray="7 5" />
<text x="338.5" y="237.0" class="edge-label">NUMA</text>
<line x1="526.4" y1="174.0" x2="401.1" y2="310.0" stroke="#475569" stroke-width="2" stroke-dasharray="7 5" />
<text x="463.8" y="237.0" class="edge-label">NUMA</text>
<line x1="150.6" y1="174.0" x2="526.4" y2="310.0" stroke="#475569" stroke-width="2" stroke-dasharray="7 5" />
<text x="338.5" y="237.0" class="edge-label">NUMA</text>
<line x1="776.9" y1="174.0" x2="651.6" y2="310.0" stroke="#475569" stroke-width="2" stroke-dasharray="7 5" />
<text x="714.2" y="237.0" class="edge-label">NUMA</text>
<line x1="902.1" y1="174.0" x2="776.9" y2="310.0" stroke="#475569" stroke-width="2" stroke-dasharray="7 5" />
<text x="839.5" y="237.0" class="edge-label">NUMA</text>
<line x1="1027.4" y1="174.0" x2="902.1" y2="310.0" stroke="#475569" stroke-width="2" stroke-dasharray="7 5" />
<text x="964.8" y="237.0" class="edge-label">NUMA</text>
<line x1="651.6" y1="174.0" x2="1027.4" y2="310.0" stroke="#475569" stroke-width="2" stroke-dasharray="7 5" />
<text x="839.5" y="237.0" class="edge-label">NUMA</text>
<line x1="126.5" y1="510.0" x2="275.9" y2="174.0" stroke="#475569" stroke-width="2" stroke-dasharray="7 5" />
<text x="201.2" y="337.0" class="edge-label">NUMA</text>
<line x1="203.6" y1="510.0" x2="401.1" y2="174.0" stroke="#475569" stroke-width="2" stroke-dasharray="7 5" />
<text x="302.4" y="337.0" class="edge-label">NUMA</text>
<line x1="280.7" y1="510.0" x2="526.4" y2="174.0" stroke="#475569" stroke-width="2" stroke-dasharray="7 5" />
<text x="403.5" y="337.0" class="edge-label">NUMA</text>
<line x1="357.8" y1="510.0" x2="150.6" y2="174.0" stroke="#475569" stroke-width="2" stroke-dasharray="7 5" />
<text x="254.2" y="337.0" class="edge-label">NUMA</text>
<line x1="434.8" y1="510.0" x2="776.9" y2="174.0" stroke="#475569" stroke-width="2" stroke-dasharray="7 5" />
<text x="605.9" y="337.0" class="edge-label">NUMA</text>
<line x1="511.9" y1="510.0" x2="902.1" y2="174.0" stroke="#475569" stroke-width="2" stroke-dasharray="7 5" />
<text x="707.0" y="337.0" class="edge-label">NUMA</text>
<line x1="589.0" y1="510.0" x2="1027.4" y2="174.0" stroke="#475569" stroke-width="2" stroke-dasharray="7 5" />
<text x="808.2" y="337.0" class="edge-label">NUMA</text>
<line x1="666.1" y1="510.0" x2="651.6" y2="174.0" stroke="#475569" stroke-width="2" stroke-dasharray="7 5" />
<text x="658.9" y="337.0" class="edge-label">NUMA</text>
<line x1="743.2" y1="510.0" x2="651.6" y2="174.0" stroke="#475569" stroke-width="2" stroke-dasharray="7 5" />
<text x="697.4" y="337.0" class="edge-label">NUMA</text>
<line x1="820.2" y1="510.0" x2="651.6" y2="174.0" stroke="#475569" stroke-width="2" stroke-dasharray="7 5" />
<text x="735.9" y="337.0" class="edge-label">NUMA</text>
<line x1="897.3" y1="510.0" x2="651.6" y2="174.0" stroke="#475569" stroke-width="2" stroke-dasharray="7 5" />
<text x="774.5" y="337.0" class="edge-label">NUMA</text>
<line x1="974.4" y1="510.0" x2="651.6" y2="174.0" stroke="#475569" stroke-width="2" stroke-dasharray="7 5" />
<text x="813.0" y="337.0" class="edge-label">NUMA</text>
<line x1="1051.5" y1="510.0" x2="651.6" y2="174.0" stroke="#475569" stroke-width="2" stroke-dasharray="7 5" />
<text x="851.5" y="337.0" class="edge-label">NUMA</text>
<line x1="150.6" y1="368.0" x2="126.5" y2="510.0" stroke="#2563eb" stroke-width="2" />
<text x="138.6" y="434.0" class="edge-label">PIX</text>
<line x1="275.9" y1="368.0" x2="203.6" y2="510.0" stroke="#2563eb" stroke-width="2" />
<text x="239.7" y="434.0" class="edge-label">PIX</text>
<line x1="401.1" y1="368.0" x2="280.7" y2="510.0" stroke="#2563eb" stroke-width="2" />
<text x="340.9" y="434.0" class="edge-label">PIX</text>
<line x1="526.4" y1="368.0" x2="357.8" y2="510.0" stroke="#2563eb" stroke-width="2" />
<text x="442.1" y="434.0" class="edge-label">PIX</text>
<line x1="651.6" y1="368.0" x2="434.8" y2="510.0" stroke="#2563eb" stroke-width="2" />
<text x="543.2" y="434.0" class="edge-label">PIX</text>
<line x1="776.9" y1="368.0" x2="511.9" y2="510.0" stroke="#2563eb" stroke-width="2" />
<text x="644.4" y="434.0" class="edge-label">PIX</text>
<line x1="902.1" y1="368.0" x2="589.0" y2="510.0" stroke="#2563eb" stroke-width="2" />
<text x="745.6" y="434.0" class="edge-label">PIX</text>
<line x1="1027.4" y1="368.0" x2="974.4" y2="510.0" stroke="#2563eb" stroke-width="2" />
<text x="1000.9" y="434.0" class="edge-label">PIX</text>
<line x1="1027.4" y1="368.0" x2="1051.5" y2="510.0" stroke="#2563eb" stroke-width="2" />
<text x="1039.4" y="434.0" class="edge-label">PIX</text>
<g class="numa">
<rect x="98.6" y="116.0" width="104" height="58" rx="6" />
<text x="150.6" y="137.0" class="box-title">NUMA 0</text>
<text x="150.6" y="155.0" class="box-line">CPU 0-15</text>
</g>
<g class="numa">
<rect x="223.9" y="116.0" width="104" height="58" rx="6" />
<text x="275.9" y="137.0" class="box-title">NUMA 1</text>
<text x="275.9" y="155.0" class="box-line">CPU 16-31</text>
</g>
<g class="numa">
<rect x="349.1" y="116.0" width="104" height="58" rx="6" />
<text x="401.1" y="137.0" class="box-title">NUMA 2</text>
<text x="401.1" y="155.0" class="box-line">CPU 32-47</text>
</g>
<g class="numa">
<rect x="474.4" y="116.0" width="104" height="58" rx="6" />
<text x="526.4" y="137.0" class="box-title">NUMA 3</text>
<text x="526.4" y="155.0" class="box-line">CPU 48-63</text>
</g>
<g class="numa">
<rect x="599.6" y="116.0" width="104" height="58" rx="6" />
<text x="651.6" y="137.0" class="box-title">NUMA 4</text>
<text x="651.6" y="155.0" class="box-line">CPU 64-79</text>
</g>
<g class="numa">
<rect x="724.9" y="116.0" width="104" height="58" rx="6" />
<text x="776.9" y="137.0" class="box-title">NUMA 5</text>
<text x="776.9" y="155.0" class="box-line">CPU 80-95</text>
</g>
<g class="numa">
<rect x="850.1" y="116.0" width="104" height="58" rx="6" />
<text x="902.1" y="137.0" class="box-title">NUMA 6</text>
<text x="902.1" y="155.0" class="box-line">CPU 96-111</text>
</g>
<g class="numa">
<rect x="975.4" y="116.0" width="104" height="58" rx="6" />
<text x="1027.4" y="137.0" class="box-title">NUMA 7</text>
<text x="1027.4" y="155.0" class="box-line">CPU 112-127</text>
</g>
<g class="gpu">
<rect x="98.6" y="310.0" width="104" height="58" rx="6" />
<text x="150.6" y="331.0" class="box-title">GPU0</text>
<text x="150.6" y="349.0" class="box-line">NUMA 1</text>
<text x="150.6" y="363.0" class="box-line">CPU -</text>
</g>
<g class="gpu">
<rect x="223.9" y="310.0" width="104" height="58" rx="6" />
<text x="275.9" y="331.0" class="box-title">GPU1</text>
<text x="275.9" y="349.0" class="box-line">NUMA 2</text>
<text x="275.9" y="363.0" class="box-line">CPU -</text>
</g>
<g class="gpu">
<rect x="349.1" y="310.0" width="104" height="58" rx="6" />
<text x="401.1" y="331.0" class="box-title">GPU2</text>
<text x="401.1" y="349.0" class="box-line">NUMA 3</text>
<text x="401.1" y="363.0" class="box-line">CPU -</text>
</g>
<g class="gpu">
<rect x="474.4" y="310.0" width="104" height="58" rx="6" />
<text x="526.4" y="331.0" class="box-title">GPU3</text>
<text x="526.4" y="349.0" class="box-line">NUMA 0</text>
<text x="526.4" y="363.0" class="box-line">CPU -</text>
</g>
<g class="gpu">
<rect x="599.6" y="310.0" width="104" height="58" rx="6" />
<text x="651.6" y="331.0" class="box-title">GPU4</text>
<text x="651.6" y="349.0" class="box-line">NUMA 5</text>
<text x="651.6" y="363.0" class="box-line">CPU 80</text>
</g>
<g class="gpu">
<rect x="724.9" y="310.0" width="104" height="58" rx="6" />
<text x="776.9" y="331.0" class="box-title">GPU5</text>
<text x="776.9" y="349.0" class="box-line">NUMA 6</text>
<text x="776.9" y="363.0" class="box-line">CPU 96</text>
</g>
<g class="gpu">
<rect x="850.1" y="310.0" width="104" height="58" rx="6" />
<text x="902.1" y="331.0" class="box-title">GPU6</text>
<text x="902.1" y="349.0" class="box-line">NUMA 7</text>
<text x="902.1" y="363.0" class="box-line">CPU 112</text>
</g>
<g class="gpu">
<rect x="975.4" y="310.0" width="104" height="58" rx="6" />
<text x="1027.4" y="331.0" class="box-title">GPU7</text>
<text x="1027.4" y="349.0" class="box-line">NUMA 4</text>
<text x="1027.4" y="363.0" class="box-line">CPU 64</text>
</g>
<g class="nic">
<rect x="74.5" y="510.0" width="104" height="58" rx="6" />
<text x="126.5" y="531.0" class="box-title">mlx5_0</text>
<text x="126.5" y="549.0" class="box-line">NUMA 1</text>
<text x="126.5" y="563.0" class="box-line">CPU 16-31</text>
</g>
<g class="nic">
<rect x="151.6" y="510.0" width="104" height="58" rx="6" />
<text x="203.6" y="531.0" class="box-title">mlx5_1</text>
<text x="203.6" y="549.0" class="box-line">NUMA 2</text>
<text x="203.6" y="563.0" class="box-line">CPU 32-47</text>
</g>
<g class="nic">
<rect x="228.7" y="510.0" width="104" height="58" rx="6" />
<text x="280.7" y="531.0" class="box-title">mlx5_2</text>
<text x="280.7" y="549.0" class="box-line">NUMA 3</text>
<text x="280.7" y="563.0" class="box-line">CPU 48-63</text>
</g>
<g class="nic">
<rect x="305.8" y="510.0" width="104" height="58" rx="6" />
<text x="357.8" y="531.0" class="box-title">mlx5_3</text>
<text x="357.8" y="549.0" class="box-line">NUMA 0</text>
<text x="357.8" y="563.0" class="box-line">CPU 0-15</text>
</g>
<g class="nic">
<rect x="382.8" y="510.0" width="104" height="58" rx="6" />
<text x="434.8" y="531.0" class="box-title">mlx5_4</text>
<text x="434.8" y="549.0" class="box-line">NUMA 5</text>
<text x="434.8" y="563.0" class="box-line">CPU 80-95</text>
</g>
<g class="nic">
<rect x="459.9" y="510.0" width="104" height="58" rx="6" />
<text x="511.9" y="531.0" class="box-title">mlx5_5</text>
<text x="511.9" y="549.0" class="box-line">NUMA 6</text>
<text x="511.9" y="563.0" class="box-line">CPU 96-111</text>
</g>
<g class="nic">
<rect x="537.0" y="510.0" width="104" height="58" rx="6" />
<text x="589.0" y="531.0" class="box-title">mlx5_6</text>
<text x="589.0" y="549.0" class="box-line">NUMA 7</text>
<text x="589.0" y="563.0" class="box-line">CPU 112-127</text>
</g>
<g class="nic">
<rect x="614.1" y="510.0" width="104" height="58" rx="6" />
<text x="666.1" y="531.0" class="box-title">mlx5_7</text>
<text x="666.1" y="549.0" class="box-line">NUMA 4</text>
<text x="666.1" y="563.0" class="box-line">CPU 64-79</text>
</g>
<g class="nic">
<rect x="691.2" y="510.0" width="104" height="58" rx="6" />
<text x="743.2" y="531.0" class="box-title">mlx5_8</text>
<text x="743.2" y="549.0" class="box-line">NUMA 4</text>
<text x="743.2" y="563.0" class="box-line">CPU 64-79</text>
</g>
<g class="nic">
<rect x="768.2" y="510.0" width="104" height="58" rx="6" />
<text x="820.2" y="531.0" class="box-title">mlx5_9</text>
<text x="820.2" y="549.0" class="box-line">NUMA 4</text>
<text x="820.2" y="563.0" class="box-line">CPU 64-79</text>
</g>
<g class="nic">
<rect x="845.3" y="510.0" width="104" height="58" rx="6" />
<text x="897.3" y="531.0" class="box-title">mlx5_10</text>
<text x="897.3" y="549.0" class="box-line">NUMA 4</text>
<text x="897.3" y="563.0" class="box-line">CPU 64-79</text>
</g>
<g class="nic">
<rect x="922.4" y="510.0" width="104" height="58" rx="6" />
<text x="974.4" y="531.0" class="box-title">mlx5_11</text>
<text x="974.4" y="549.0" class="box-line">NUMA 4</text>
<text x="974.4" y="563.0" class="box-line">CPU 64-79</text>
</g>
<g class="nic">
<rect x="999.5" y="510.0" width="104" height="58" rx="6" />
<text x="1051.5" y="531.0" class="box-title">mlx5_12</text>
<text x="1051.5" y="549.0" class="box-line">NUMA 4</text>
<text x="1051.5" y="563.0" class="box-line">CPU 64-79</text>
</g>
</svg>
